<svg width="72" height="72" viewBox="0 0 72 72" fill="none" xmlns="http://www.w3.org/2000/svg"><rect width="72" height="72" rx="18.5347" fill="url(#paint0_linear_2130_2688)"></rect><path d="M50.804 10.0078C49.2785 10.0075 47.7678 10.3086 46.3583 10.8938C44.9489 11.4791 43.6682 12.3369 42.5895 13.4185C41.5107 14.5001 40.6551 15.7841 40.0714 17.1973C39.4877 18.6105 39.1875 20.1251 39.1877 21.6547V36.07C39.1872 36.8065 38.895 37.5127 38.3753 38.0334C37.8557 38.554 37.1511 38.8465 36.4165 38.8465H22.043C18.9626 38.8465 16.0082 40.0733 13.8298 42.2571C11.6514 44.4408 10.4273 47.4027 10.4268 50.4913C10.426 52.0213 10.7258 53.5365 11.3093 54.9502C11.8927 56.364 12.7482 57.6487 13.8269 58.7308C14.9057 59.813 16.1865 60.6714 17.5963 61.2571C19.006 61.8428 20.5171 62.1442 22.043 62.1442H50.804C52.3295 62.1442 53.84 61.843 55.2494 61.2577C56.6587 60.6723 57.9393 59.8144 59.0179 58.7329C60.0966 57.6514 60.9523 56.3675 61.536 54.9544C62.1198 53.5414 62.4203 52.0269 62.4203 50.4974V21.6547C62.4203 20.1252 62.1198 18.6107 61.536 17.1976C60.9523 15.7845 60.0966 14.5006 59.0179 13.4191C57.9393 12.3376 56.6587 11.4797 55.2494 10.8944C53.84 10.3091 52.3295 10.0078 50.804 10.0078Z" fill="#0B48E4"></path><path d="M50.8036 28.4062C54.5115 28.4062 57.5174 25.3925 57.5174 21.6748C57.5174 17.9571 54.5115 14.9434 50.8036 14.9434C47.0957 14.9434 44.0898 17.9571 44.0898 21.6748C44.0898 25.3925 47.0957 28.4062 50.8036 28.4062Z" fill="#FF039C"></path><path d="M21.3639 33.3393C27.7894 33.3393 32.9983 28.1167 32.9983 21.6743C32.9983 15.2319 27.7894 10.0093 21.3639 10.0093C14.9384 10.0093 9.72949 15.2319 9.72949 21.6743C9.72949 28.1167 14.9384 33.3393 21.3639 33.3393Z" fill="#0B48E4"></path><defs><linearGradient id="paint0_linear_2130_2688" x1="-3.72062e-07" y1="26.7011" x2="69.0388" y2="47.1973" gradientUnits="userSpaceOnUse"><stop stop-color="#FF05DB"></stop><stop offset="1" stop-color="#FF0055"></stop></linearGradient></defs></svg>